<?xml version="1.0" standalone="no"?>
<!DOCTYPE svg PUBLIC "-//W3C//DTD SVG 20010904//EN"
 "http://www.w3.org/TR/2001/REC-SVG-20010904/DTD/svg10.dtd">
<svg version="1.0" xmlns="http://www.w3.org/2000/svg"
 width="402.000000pt" height="402.000000pt" viewBox="0 0 402.000000 402.000000"
 preserveAspectRatio="xMidYMid meet">
<metadata>
Created by potrace 1.11, written by Peter Selinger 2001-2013
</metadata>
<g transform="translate(0.000000,402.000000) scale(0.100000,-0.100000)"
fill="#000000" stroke="none">
<path d="M1012 3993 c-14 -26 -108 -282 -192 -523 -39 -113 -87 -247 -106
-298 -43 -117 -43 -142 -3 -177 85 -70 179 -96 334 -90 61 2 121 6 135 9 14 3
75 12 135 21 61 9 122 18 136 21 127 20 279 22 365 4 33 -7 86 -25 119 -40 79
-38 93 -40 137 -18 113 55 186 71 326 70 101 -1 152 -6 280 -28 45 -8 99 -17
120 -20 20 -3 48 -7 62 -10 14 -2 73 -7 131 -10 156 -9 261 19 348 91 38 32
40 62 10 137 -12 29 -39 105 -61 168 -22 63 -55 159 -74 213 -19 53 -50 143
-70 200 -19 56 -39 111 -44 122 -4 11 -21 54 -37 95 -34 85 -32 85 -128 50
-77 -28 -223 -36 -365 -21 -224 25 -312 25 -388 2 -38 -11 -89 -29 -112 -40
l-43 -19 -52 23 c-104 45 -179 58 -309 51 -65 -4 -123 -9 -127 -12 -5 -3 -75
-7 -156 -10 -153 -6 -169 -3 -345 53 -10 3 -20 -3 -26 -14z m183 -123 c48 -9
273 -5 345 5 19 3 83 8 141 11 130 8 182 -3 275 -58 l69 -40 35 21 c110 68
138 76 260 76 63 0 153 -5 200 -10 105 -12 258 -13 325 -2 28 4 68 10 91 13
l41 5 22 -58 c93 -239 215 -608 208 -626 -2 -7 -34 -23 -70 -35 -50 -18 -83
-23 -142 -21 -77 2 -107 6 -260 34 -44 8 -98 17 -120 20 -23 3 -52 8 -65 11
-14 3 -82 8 -152 9 -140 4 -197 -6 -309 -56 -59 -25 -71 -27 -100 -17 -19 6
-38 14 -44 18 -16 12 -105 41 -150 48 -52 8 -206 7 -268 -2 -27 -4 -92 -16
-145 -27 -182 -38 -178 -37 -237 -45 -61 -9 -101 -8 -168 0 -56 8 -147 43
-147 58 0 7 113 331 235 677 4 10 15 11 43 6 20 -4 60 -11 87 -15z m624 -716
c34 -7 88 -27 121 -44 33 -16 68 -30 80 -30 11 0 46 13 77 30 32 16 87 37 123
46 90 23 282 14 463 -20 188 -36 227 -41 332 -40 74 0 102 5 155 27 35 15 67
23 71 19 3 -4 11 -22 18 -41 14 -42 7 -51 -62 -82 -79 -36 -224 -35 -437 1
-346 60 -506 57 -682 -15 -60 -24 -60 -24 -97 -6 -112 58 -309 78 -491 52 -41
-6 -95 -13 -120 -17 -25 -3 -90 -14 -145 -24 -113 -20 -297 -21 -357 -1 -21 6
-50 22 -64 34 -25 22 -26 24 -10 60 l15 37 33 -18 c29 -17 45 -22 108 -39 22
-6 135 -5 183 2 23 4 110 19 192 36 264 51 383 59 494 33z"/>
<path d="M1528 3727 c-8 -7 -38 -44 -66 -83 -37 -53 -48 -74 -39 -83 18 -18
22 -15 68 52 l44 62 3 -188 c2 -186 3 -188 24 -185 21 3 21 6 21 212 0 201 -1
210 -21 217 -12 5 -26 3 -34 -4z"/>
<path d="M1763 3724 c-132 -65 -81 -292 64 -282 25 2 39 -1 35 -7 -3 -5 -23
-36 -44 -67 -21 -31 -38 -59 -38 -61 0 -3 9 -7 19 -10 16 -4 33 16 90 102 38
58 75 119 80 134 49 131 -82 252 -206 191z m111 -34 c73 -27 84 -153 17 -193
-56 -33 -119 -19 -146 33 -51 99 29 198 129 160z"/>
<path d="M2083 3720 c-56 -33 -83 -120 -41 -128 12 -2 19 6 24 33 14 74 100
100 155 46 57 -58 39 -99 -102 -235 -57 -54 -104 -107 -104 -117 -2 -20 -1
-20 110 -21 161 0 165 1 165 21 0 18 -7 20 -87 19 -49 0 -97 0 -107 1 -14 1 6
25 73 88 102 95 124 128 123 185 -2 103 -119 164 -209 108z"/>
<path d="M2407 3721 c-55 -36 -62 -56 -66 -188 -3 -109 -1 -127 18 -167 35
-72 116 -95 196 -56 59 29 69 55 72 195 3 142 -13 191 -72 219 -45 22 -113 20
-148 -3z m144 -47 c33 -35 38 -75 30 -257 -3 -70 -98 -111 -154 -66 -33 25
-45 72 -45 174 0 84 15 138 46 161 27 21 98 14 123 -12z"/>
<path d="M649 2715 c-18 -12 -9 -1433 10 -1545 55 -317 183 -566 398 -773 63
-60 203 -171 233 -185 8 -4 44 -24 80 -44 128 -73 330 -137 490 -155 98 -12
299 -6 398 12 440 79 803 358 1002 770 72 149 112 305 125 480 5 61 9 1090 6
1345 l-1 96 -134 -1 c-74 0 -138 -4 -143 -8 -4 -5 -7 -83 -7 -175 5 -867 4
-1204 -1 -1242 -25 -190 -51 -282 -118 -415 -22 -44 -42 -82 -46 -85 -3 -3
-23 -30 -43 -60 -63 -93 -181 -205 -288 -271 -186 -116 -388 -170 -615 -164
-71 1 -140 5 -151 8 -12 3 -39 8 -59 11 -67 11 -217 66 -295 107 -294 159
-482 423 -546 769 -16 85 -18 170 -19 802 0 388 -3 710 -8 714 -5 5 -260 14
-268 9z"/>
<path d="M1148 2674 c-9 -119 0 -1405 11 -1469 60 -362 279 -586 653 -671 52
-12 269 -11 340 1 325 57 567 247 671 525 52 139 58 206 56 730 0 206 -1 488
-1 625 0 138 -2 261 -4 275 l-5 26 -132 -2 c-73 -1 -136 -2 -140 -3 -4 0 -7
-317 -6 -703 2 -776 1 -783 -62 -914 -41 -87 -179 -210 -265 -237 -201 -62
-359 -67 -502 -17 -111 39 -178 92 -242 191 -36 55 -50 89 -77 190 -4 13 -7
351 -8 751 0 400 -3 730 -7 733 -4 4 -68 8 -142 9 l-134 2 -4 -42z"/>
<path d="M1650 2710 c-13 -8 -11 -1347 1 -1425 30 -183 137 -255 384 -255 200
0 300 57 350 200 15 42 23 169 12 187 -6 10 -263 11 -272 1 -3 -3 -6 -24 -7
-47 0 -22 -5 -44 -12 -48 -6 -5 -47 -8 -91 -8 l-80 0 -6 40 c-4 22 -6 127 -5
234 l1 195 225 4 c123 2 226 5 228 6 1 2 4 65 5 140 l2 136 -226 0 c-173 0
-228 3 -231 13 -2 6 -3 86 -3 177 l0 165 225 3 c123 2 226 5 228 6 2 2 5 65 6
140 2 118 1 136 -13 137 -64 4 -714 3 -721 -1z"/>
</g>
</svg>
